<svg width="212" height="259" viewBox="0 0 212 259" fill="none" xmlns="http://www.w3.org/2000/svg">
<g opacity="0.6">
<circle cx="1.5" cy="1.5" r="1.5" fill="#93F2FF"/>
<circle cx="14.5" cy="1.5" r="1.5" fill="#93F2FF"/>
<circle cx="27.5" cy="1.5" r="1.5" fill="#93F2FF"/>
<circle cx="40.5" cy="1.5" r="1.5" fill="#93F2FF"/>
<circle cx="53.5" cy="1.5" r="1.5" fill="#93F2FF"/>
<circle cx="66.5" cy="1.5" r="1.5" fill="#93F2FF"/>
<circle cx="79.5" cy="1.5" r="1.5" fill="#93F2FF"/>
<circle cx="92.5" cy="1.5" r="1.5" fill="#93F2FF"/>
<circle cx="105.5" cy="1.5" r="1.5" fill="#93F2FF"/>
<circle cx="118.5" cy="1.5" r="1.5" fill="#93F2FF"/>
<circle cx="131.5" cy="1.5" r="1.5" fill="#93F2FF"/>
<circle cx="145.5" cy="1.5" r="1.5" fill="#93F2FF"/>
<circle cx="158.5" cy="1.5" r="1.5" fill="#93F2FF"/>
<circle cx="171.5" cy="1.5" r="1.5" fill="#93F2FF"/>
<circle cx="184.5" cy="1.5" r="1.5" fill="#93F2FF"/>
<circle cx="197.5" cy="1.5" r="1.5" fill="#93F2FF"/>
<circle cx="210.5" cy="1.5" r="1.5" fill="#93F2FF"/>
<circle cx="1.5" cy="17.5" r="1.5" fill="#93F2FF"/>
<circle cx="14.5" cy="17.5" r="1.5" fill="#93F2FF"/>
<circle cx="27.5" cy="17.5" r="1.5" fill="#93F2FF"/>
<circle cx="40.5" cy="17.5" r="1.5" fill="#93F2FF"/>
<circle cx="53.5" cy="17.5" r="1.5" fill="#93F2FF"/>
<circle cx="66.5" cy="17.5" r="1.5" fill="#93F2FF"/>
<circle cx="79.5" cy="17.5" r="1.5" fill="#93F2FF"/>
<circle cx="92.5" cy="17.5" r="1.5" fill="#93F2FF"/>
<circle cx="105.5" cy="17.5" r="1.5" fill="#93F2FF"/>
<circle cx="118.5" cy="17.5" r="1.5" fill="#93F2FF"/>
<circle cx="131.5" cy="17.5" r="1.5" fill="#93F2FF"/>
<circle cx="145.5" cy="17.5" r="1.5" fill="#93F2FF"/>
<circle cx="158.5" cy="17.5" r="1.5" fill="#93F2FF"/>
<circle cx="171.5" cy="17.5" r="1.5" fill="#93F2FF"/>
<circle cx="184.5" cy="17.5" r="1.5" fill="#93F2FF"/>
<circle cx="197.5" cy="17.5" r="1.5" fill="#93F2FF"/>
<circle cx="210.5" cy="17.5" r="1.5" fill="#93F2FF"/>
<circle cx="1.5" cy="33.5" r="1.5" fill="#93F2FF"/>
<circle cx="14.5" cy="33.5" r="1.5" fill="#93F2FF"/>
<circle cx="27.5" cy="33.5" r="1.5" fill="#93F2FF"/>
<circle cx="40.5" cy="33.5" r="1.5" fill="#93F2FF"/>
<circle cx="53.5" cy="33.5" r="1.5" fill="#93F2FF"/>
<circle cx="66.5" cy="33.5" r="1.5" fill="#93F2FF"/>
<circle cx="79.5" cy="33.5" r="1.5" fill="#93F2FF"/>
<circle cx="92.5" cy="33.5" r="1.5" fill="#93F2FF"/>
<circle cx="105.5" cy="33.5" r="1.5" fill="#93F2FF"/>
<circle cx="118.5" cy="33.5" r="1.5" fill="#93F2FF"/>
<circle cx="131.5" cy="33.5" r="1.5" fill="#93F2FF"/>
<circle cx="145.5" cy="33.5" r="1.5" fill="#93F2FF"/>
<circle cx="158.5" cy="33.5" r="1.5" fill="#93F2FF"/>
<circle cx="171.5" cy="33.5" r="1.5" fill="#93F2FF"/>
<circle cx="184.5" cy="33.5" r="1.5" fill="#93F2FF"/>
<circle cx="197.5" cy="33.5" r="1.5" fill="#93F2FF"/>
<circle cx="210.5" cy="33.5" r="1.5" fill="#93F2FF"/>
<circle cx="1.5" cy="49.5" r="1.5" fill="#93F2FF"/>
<circle cx="14.5" cy="49.5" r="1.5" fill="#93F2FF"/>
<circle cx="27.5" cy="49.5" r="1.5" fill="#93F2FF"/>
<circle cx="40.5" cy="49.5" r="1.5" fill="#93F2FF"/>
<circle cx="53.5" cy="49.5" r="1.5" fill="#93F2FF"/>
<circle cx="66.5" cy="49.5" r="1.5" fill="#93F2FF"/>
<circle cx="79.5" cy="49.5" r="1.5" fill="#93F2FF"/>
<circle cx="92.5" cy="49.5" r="1.5" fill="#93F2FF"/>
<circle cx="105.5" cy="49.5" r="1.5" fill="#93F2FF"/>
<circle cx="118.5" cy="49.5" r="1.5" fill="#93F2FF"/>
<circle cx="131.5" cy="49.5" r="1.5" fill="#93F2FF"/>
<circle cx="145.5" cy="49.5" r="1.5" fill="#93F2FF"/>
<circle cx="158.5" cy="49.5" r="1.5" fill="#93F2FF"/>
<circle cx="171.5" cy="49.5" r="1.5" fill="#93F2FF"/>
<circle cx="184.5" cy="49.5" r="1.5" fill="#93F2FF"/>
<circle cx="197.5" cy="49.5" r="1.5" fill="#93F2FF"/>
<circle cx="210.5" cy="49.5" r="1.5" fill="#93F2FF"/>
<circle cx="1.5" cy="65.5" r="1.5" fill="#93F2FF"/>
<circle cx="14.5" cy="65.5" r="1.5" fill="#93F2FF"/>
<circle cx="27.5" cy="65.5" r="1.5" fill="#93F2FF"/>
<circle cx="40.5" cy="65.5" r="1.5" fill="#93F2FF"/>
<circle cx="53.5" cy="65.5" r="1.5" fill="#93F2FF"/>
<circle cx="66.5" cy="65.5" r="1.5" fill="#93F2FF"/>
<circle cx="79.5" cy="65.5" r="1.5" fill="#93F2FF"/>
<circle cx="92.5" cy="65.5" r="1.5" fill="#93F2FF"/>
<circle cx="105.5" cy="65.5" r="1.5" fill="#93F2FF"/>
<circle cx="118.5" cy="65.5" r="1.5" fill="#93F2FF"/>
<circle cx="131.5" cy="65.5" r="1.5" fill="#93F2FF"/>
<circle cx="145.5" cy="65.5" r="1.5" fill="#93F2FF"/>
<circle cx="158.5" cy="65.5" r="1.5" fill="#93F2FF"/>
<circle cx="171.5" cy="65.5" r="1.5" fill="#93F2FF"/>
<circle cx="184.5" cy="65.5" r="1.5" fill="#93F2FF"/>
<circle cx="197.5" cy="65.5" r="1.5" fill="#93F2FF"/>
<circle cx="210.5" cy="65.5" r="1.5" fill="#93F2FF"/>
<circle cx="1.5" cy="81.5" r="1.5" fill="#93F2FF"/>
<circle cx="14.5" cy="81.5" r="1.5" fill="#93F2FF"/>
<circle cx="27.5" cy="81.5" r="1.5" fill="#93F2FF"/>
<circle cx="40.5" cy="81.5" r="1.5" fill="#93F2FF"/>
<circle cx="53.5" cy="81.5" r="1.5" fill="#93F2FF"/>
<circle cx="66.5" cy="81.5" r="1.5" fill="#93F2FF"/>
<circle cx="79.5" cy="81.5" r="1.5" fill="#93F2FF"/>
<circle cx="92.5" cy="81.5" r="1.5" fill="#93F2FF"/>
<circle cx="105.5" cy="81.5" r="1.5" fill="#93F2FF"/>
<circle cx="118.5" cy="81.5" r="1.5" fill="#93F2FF"/>
<circle cx="131.5" cy="81.5" r="1.5" fill="#93F2FF"/>
<circle cx="145.5" cy="81.5" r="1.5" fill="#93F2FF"/>
<circle cx="158.5" cy="81.5" r="1.5" fill="#93F2FF"/>
<circle cx="171.5" cy="81.5" r="1.5" fill="#93F2FF"/>
<circle cx="184.5" cy="81.5" r="1.5" fill="#93F2FF"/>
<circle cx="197.5" cy="81.5" r="1.5" fill="#93F2FF"/>
<circle cx="210.5" cy="81.5" r="1.5" fill="#93F2FF"/>
<circle cx="1.5" cy="97.5" r="1.5" fill="#93F2FF"/>
<circle cx="14.5" cy="97.5" r="1.5" fill="#93F2FF"/>
<circle cx="27.5" cy="97.5" r="1.5" fill="#93F2FF"/>
<circle cx="40.5" cy="97.5" r="1.5" fill="#93F2FF"/>
<circle cx="53.5" cy="97.5" r="1.5" fill="#93F2FF"/>
<circle cx="66.5" cy="97.5" r="1.5" fill="#93F2FF"/>
<circle cx="79.5" cy="97.5" r="1.5" fill="#93F2FF"/>
<circle cx="92.5" cy="97.5" r="1.5" fill="#93F2FF"/>
<circle cx="105.5" cy="97.5" r="1.5" fill="#93F2FF"/>
<circle cx="118.5" cy="97.5" r="1.5" fill="#93F2FF"/>
<circle cx="131.5" cy="97.5" r="1.5" fill="#93F2FF"/>
<circle cx="145.5" cy="97.5" r="1.5" fill="#93F2FF"/>
<circle cx="158.5" cy="97.5" r="1.5" fill="#93F2FF"/>
<circle cx="171.5" cy="97.5" r="1.5" fill="#93F2FF"/>
<circle cx="184.5" cy="97.5" r="1.5" fill="#93F2FF"/>
<circle cx="197.5" cy="97.5" r="1.5" fill="#93F2FF"/>
<circle cx="210.5" cy="97.5" r="1.5" fill="#93F2FF"/>
<circle cx="1.5" cy="113.5" r="1.5" fill="#93F2FF"/>
<circle cx="14.5" cy="113.5" r="1.5" fill="#93F2FF"/>
<circle cx="27.5" cy="113.5" r="1.5" fill="#93F2FF"/>
<circle cx="40.5" cy="113.5" r="1.5" fill="#93F2FF"/>
<circle cx="53.5" cy="113.5" r="1.5" fill="#93F2FF"/>
<circle cx="66.5" cy="113.5" r="1.5" fill="#93F2FF"/>
<circle cx="79.5" cy="113.5" r="1.5" fill="#93F2FF"/>
<circle cx="92.5" cy="113.5" r="1.5" fill="#93F2FF"/>
<circle cx="105.5" cy="113.5" r="1.5" fill="#93F2FF"/>
<circle cx="118.5" cy="113.5" r="1.5" fill="#93F2FF"/>
<circle cx="131.5" cy="113.5" r="1.5" fill="#93F2FF"/>
<circle cx="145.5" cy="113.5" r="1.5" fill="#93F2FF"/>
<circle cx="158.5" cy="113.5" r="1.5" fill="#93F2FF"/>
<circle cx="171.5" cy="113.5" r="1.5" fill="#93F2FF"/>
<circle cx="184.5" cy="113.5" r="1.5" fill="#93F2FF"/>
<circle cx="197.5" cy="113.5" r="1.5" fill="#93F2FF"/>
<circle cx="210.5" cy="113.5" r="1.5" fill="#93F2FF"/>
<circle cx="1.5" cy="129.5" r="1.5" fill="#93F2FF"/>
<circle cx="14.5" cy="129.5" r="1.5" fill="#93F2FF"/>
<circle cx="27.5" cy="129.5" r="1.5" fill="#93F2FF"/>
<circle cx="40.5" cy="129.5" r="1.5" fill="#93F2FF"/>
<circle cx="53.5" cy="129.5" r="1.5" fill="#93F2FF"/>
<circle cx="66.5" cy="129.5" r="1.5" fill="#93F2FF"/>
<circle cx="79.5" cy="129.5" r="1.5" fill="#93F2FF"/>
<circle cx="92.5" cy="129.5" r="1.5" fill="#93F2FF"/>
<circle cx="105.5" cy="129.5" r="1.5" fill="#93F2FF"/>
<circle cx="118.5" cy="129.5" r="1.5" fill="#93F2FF"/>
<circle cx="131.5" cy="129.5" r="1.5" fill="#93F2FF"/>
<circle cx="145.5" cy="129.5" r="1.5" fill="#93F2FF"/>
<circle cx="158.5" cy="129.5" r="1.5" fill="#93F2FF"/>
<circle cx="171.5" cy="129.5" r="1.5" fill="#93F2FF"/>
<circle cx="184.5" cy="129.5" r="1.5" fill="#93F2FF"/>
<circle cx="197.5" cy="129.5" r="1.5" fill="#93F2FF"/>
<circle cx="210.5" cy="129.5" r="1.5" fill="#93F2FF"/>
<circle cx="1.5" cy="145.5" r="1.5" fill="#93F2FF"/>
<circle cx="14.5" cy="145.5" r="1.5" fill="#93F2FF"/>
<circle cx="27.5" cy="145.5" r="1.5" fill="#93F2FF"/>
<circle cx="40.5" cy="145.5" r="1.5" fill="#93F2FF"/>
<circle cx="53.5" cy="145.5" r="1.5" fill="#93F2FF"/>
<circle cx="66.5" cy="145.5" r="1.5" fill="#93F2FF"/>
<circle cx="79.5" cy="145.5" r="1.5" fill="#93F2FF"/>
<circle cx="92.5" cy="145.5" r="1.5" fill="#93F2FF"/>
<circle cx="105.5" cy="145.5" r="1.5" fill="#93F2FF"/>
<circle cx="118.5" cy="145.5" r="1.5" fill="#93F2FF"/>
<circle cx="131.5" cy="145.5" r="1.5" fill="#93F2FF"/>
<circle cx="145.5" cy="145.5" r="1.5" fill="#93F2FF"/>
<circle cx="158.5" cy="145.5" r="1.5" fill="#93F2FF"/>
<circle cx="171.5" cy="145.5" r="1.5" fill="#93F2FF"/>
<circle cx="184.5" cy="145.5" r="1.5" fill="#93F2FF"/>
<circle cx="197.5" cy="145.5" r="1.5" fill="#93F2FF"/>
<circle cx="210.5" cy="145.5" r="1.5" fill="#93F2FF"/>
<circle cx="1.5" cy="161.5" r="1.5" fill="#93F2FF"/>
<circle cx="14.5" cy="161.5" r="1.5" fill="#93F2FF"/>
<circle cx="27.5" cy="161.5" r="1.5" fill="#93F2FF"/>
<circle cx="40.5" cy="161.5" r="1.5" fill="#93F2FF"/>
<circle cx="53.5" cy="161.5" r="1.5" fill="#93F2FF"/>
<circle cx="66.5" cy="161.5" r="1.5" fill="#93F2FF"/>
<circle cx="79.5" cy="161.5" r="1.5" fill="#93F2FF"/>
<circle cx="92.5" cy="161.5" r="1.5" fill="#93F2FF"/>
<circle cx="105.5" cy="161.5" r="1.5" fill="#93F2FF"/>
<circle cx="118.5" cy="161.5" r="1.5" fill="#93F2FF"/>
<circle cx="131.5" cy="161.5" r="1.5" fill="#93F2FF"/>
<circle cx="145.5" cy="161.5" r="1.5" fill="#93F2FF"/>
<circle cx="158.5" cy="161.5" r="1.5" fill="#93F2FF"/>
<circle cx="171.5" cy="161.5" r="1.5" fill="#93F2FF"/>
<circle cx="184.5" cy="161.5" r="1.5" fill="#93F2FF"/>
<circle cx="197.5" cy="161.5" r="1.5" fill="#93F2FF"/>
<circle cx="210.5" cy="161.5" r="1.5" fill="#93F2FF"/>
<circle cx="1.5" cy="177.5" r="1.5" fill="#93F2FF"/>
<circle cx="14.5" cy="177.5" r="1.5" fill="#93F2FF"/>
<circle cx="27.5" cy="177.5" r="1.5" fill="#93F2FF"/>
<circle cx="40.5" cy="177.5" r="1.5" fill="#93F2FF"/>
<circle cx="53.5" cy="177.5" r="1.5" fill="#93F2FF"/>
<circle cx="66.5" cy="177.5" r="1.5" fill="#93F2FF"/>
<circle cx="79.5" cy="177.5" r="1.5" fill="#93F2FF"/>
<circle cx="92.5" cy="177.5" r="1.5" fill="#93F2FF"/>
<circle cx="105.5" cy="177.5" r="1.5" fill="#93F2FF"/>
<circle cx="118.5" cy="177.5" r="1.5" fill="#93F2FF"/>
<circle cx="131.5" cy="177.5" r="1.5" fill="#93F2FF"/>
<circle cx="145.5" cy="177.5" r="1.5" fill="#93F2FF"/>
<circle cx="158.5" cy="177.5" r="1.5" fill="#93F2FF"/>
<circle cx="171.5" cy="177.5" r="1.5" fill="#93F2FF"/>
<circle cx="184.5" cy="177.5" r="1.5" fill="#93F2FF"/>
<circle cx="197.5" cy="177.5" r="1.5" fill="#93F2FF"/>
<circle cx="210.5" cy="177.5" r="1.5" fill="#93F2FF"/>
<circle cx="1.5" cy="193.5" r="1.5" fill="#93F2FF"/>
<circle cx="14.5" cy="193.5" r="1.5" fill="#93F2FF"/>
<circle cx="27.5" cy="193.5" r="1.5" fill="#93F2FF"/>
<circle cx="40.5" cy="193.5" r="1.5" fill="#93F2FF"/>
<circle cx="53.5" cy="193.5" r="1.5" fill="#93F2FF"/>
<circle cx="66.5" cy="193.5" r="1.5" fill="#93F2FF"/>
<circle cx="79.5" cy="193.5" r="1.5" fill="#93F2FF"/>
<circle cx="92.5" cy="193.5" r="1.5" fill="#93F2FF"/>
<circle cx="105.5" cy="193.5" r="1.5" fill="#93F2FF"/>
<circle cx="118.5" cy="193.5" r="1.5" fill="#93F2FF"/>
<circle cx="131.5" cy="193.5" r="1.5" fill="#93F2FF"/>
<circle cx="145.5" cy="193.5" r="1.5" fill="#93F2FF"/>
<circle cx="158.5" cy="193.5" r="1.5" fill="#93F2FF"/>
<circle cx="171.5" cy="193.5" r="1.5" fill="#93F2FF"/>
<circle cx="184.5" cy="193.5" r="1.5" fill="#93F2FF"/>
<circle cx="197.5" cy="193.5" r="1.5" fill="#93F2FF"/>
<circle cx="210.5" cy="193.5" r="1.5" fill="#93F2FF"/>
<circle cx="1.5" cy="209.5" r="1.5" fill="#93F2FF"/>
<circle cx="14.5" cy="209.5" r="1.5" fill="#93F2FF"/>
<circle cx="27.5" cy="209.5" r="1.5" fill="#93F2FF"/>
<circle cx="40.5" cy="209.5" r="1.5" fill="#93F2FF"/>
<circle cx="53.5" cy="209.5" r="1.5" fill="#93F2FF"/>
<circle cx="66.5" cy="209.5" r="1.5" fill="#93F2FF"/>
<circle cx="79.5" cy="209.5" r="1.5" fill="#93F2FF"/>
<circle cx="92.5" cy="209.5" r="1.5" fill="#93F2FF"/>
<circle cx="105.5" cy="209.5" r="1.5" fill="#93F2FF"/>
<circle cx="118.5" cy="209.5" r="1.5" fill="#93F2FF"/>
<circle cx="131.5" cy="209.5" r="1.5" fill="#93F2FF"/>
<circle cx="145.5" cy="209.5" r="1.5" fill="#93F2FF"/>
<circle cx="158.5" cy="209.5" r="1.5" fill="#93F2FF"/>
<circle cx="171.5" cy="209.5" r="1.5" fill="#93F2FF"/>
<circle cx="184.5" cy="209.5" r="1.5" fill="#93F2FF"/>
<circle cx="197.5" cy="209.5" r="1.5" fill="#93F2FF"/>
<circle cx="210.5" cy="209.5" r="1.5" fill="#93F2FF"/>
<circle cx="1.5" cy="225.5" r="1.5" fill="#93F2FF"/>
<circle cx="14.5" cy="225.5" r="1.5" fill="#93F2FF"/>
<circle cx="27.5" cy="225.5" r="1.5" fill="#93F2FF"/>
<circle cx="40.5" cy="225.5" r="1.5" fill="#93F2FF"/>
<circle cx="53.5" cy="225.5" r="1.5" fill="#93F2FF"/>
<circle cx="66.5" cy="225.5" r="1.5" fill="#93F2FF"/>
<circle cx="79.5" cy="225.5" r="1.5" fill="#93F2FF"/>
<circle cx="92.5" cy="225.5" r="1.5" fill="#93F2FF"/>
<circle cx="105.5" cy="225.5" r="1.5" fill="#93F2FF"/>
<circle cx="118.5" cy="225.5" r="1.5" fill="#93F2FF"/>
<circle cx="131.5" cy="225.5" r="1.5" fill="#93F2FF"/>
<circle cx="145.5" cy="225.5" r="1.5" fill="#93F2FF"/>
<circle cx="158.5" cy="225.5" r="1.5" fill="#93F2FF"/>
<circle cx="171.5" cy="225.5" r="1.5" fill="#93F2FF"/>
<circle cx="184.5" cy="225.5" r="1.5" fill="#93F2FF"/>
<circle cx="197.5" cy="225.5" r="1.5" fill="#93F2FF"/>
<circle cx="210.5" cy="225.5" r="1.5" fill="#93F2FF"/>
<circle cx="1.5" cy="241.5" r="1.5" fill="#93F2FF"/>
<circle cx="14.5" cy="241.5" r="1.5" fill="#93F2FF"/>
<circle cx="27.5" cy="241.5" r="1.5" fill="#93F2FF"/>
<circle cx="40.5" cy="241.5" r="1.5" fill="#93F2FF"/>
<circle cx="53.5" cy="241.5" r="1.5" fill="#93F2FF"/>
<circle cx="66.5" cy="241.5" r="1.5" fill="#93F2FF"/>
<circle cx="79.5" cy="241.5" r="1.5" fill="#93F2FF"/>
<circle cx="92.5" cy="241.5" r="1.5" fill="#93F2FF"/>
<circle cx="105.5" cy="241.5" r="1.5" fill="#93F2FF"/>
<circle cx="118.5" cy="241.5" r="1.5" fill="#93F2FF"/>
<circle cx="131.5" cy="241.5" r="1.5" fill="#93F2FF"/>
<circle cx="145.5" cy="241.5" r="1.5" fill="#93F2FF"/>
<circle cx="158.5" cy="241.5" r="1.5" fill="#93F2FF"/>
<circle cx="171.5" cy="241.5" r="1.5" fill="#93F2FF"/>
<circle cx="184.5" cy="241.5" r="1.5" fill="#93F2FF"/>
<circle cx="197.5" cy="241.5" r="1.5" fill="#93F2FF"/>
<circle cx="210.5" cy="241.5" r="1.5" fill="#93F2FF"/>
<circle cx="1.5" cy="257.5" r="1.5" fill="#93F2FF"/>
<circle cx="14.5" cy="257.5" r="1.5" fill="#93F2FF"/>
<circle cx="27.5" cy="257.5" r="1.5" fill="#93F2FF"/>
<circle cx="40.5" cy="257.5" r="1.5" fill="#93F2FF"/>
<circle cx="53.5" cy="257.5" r="1.5" fill="#93F2FF"/>
<circle cx="66.5" cy="257.5" r="1.5" fill="#93F2FF"/>
<circle cx="79.5" cy="257.5" r="1.5" fill="#93F2FF"/>
<circle cx="92.5" cy="257.5" r="1.5" fill="#93F2FF"/>
<circle cx="105.5" cy="257.5" r="1.5" fill="#93F2FF"/>
<circle cx="118.5" cy="257.5" r="1.5" fill="#93F2FF"/>
<circle cx="131.5" cy="257.5" r="1.5" fill="#93F2FF"/>
<circle cx="145.5" cy="257.5" r="1.5" fill="#93F2FF"/>
<circle cx="158.5" cy="257.5" r="1.5" fill="#93F2FF"/>
<circle cx="171.5" cy="257.5" r="1.5" fill="#93F2FF"/>
<circle cx="184.5" cy="257.5" r="1.5" fill="#93F2FF"/>
<circle cx="197.5" cy="257.5" r="1.5" fill="#93F2FF"/>
<circle cx="210.5" cy="257.5" r="1.5" fill="#93F2FF"/>
</g>
</svg>
